<svg xmlns="http://www.w3.org/2000/svg" viewBox="0 0 280 75">
  <defs>
    <radialGradient id="flameOuter" cx="50%" cy="70%" r="55%">
      <stop offset="0%" stop-color="#1a0000"/>
      <stop offset="100%" stop-color="#2d0000"/>
    </radialGradient>
  </defs>

  <!-- Flame outer dark body -->
  <path d="M29,64 C15,64 6,53 6,41 C6,29 13,21 19,15
           C17,23 21,28 25,23 C25,38 31,44 34,40
           C30,31 35,23 38,18 C35,31 40,39 43,35
           C45,23 40,11 34,5 C43,10 51,23 50,37
           C52,29 50,19 45,12 C53,19 56,31 54,43
           C56,37 56,28 51,21 C56,27 58,36 56,45
           C53,57 45,64 34,64 Z" fill="#1a0000"/>

  <!-- Flame middle red -->
  <path d="M30,57 C20,57 13,49 13,40 C13,31 18,24 23,19
           C21,26 25,30 28,25 C28,38 33,43 36,39
           C33,30 37,23 40,19 C37,30 41,37 44,32
           C45,22 41,13 37,8 C44,13 50,24 49,35
           C50,28 49,20 45,14 C51,20 53,30 52,39
           C53,34 53,26 49,20 C53,25 54,33 53,41
           C50,52 44,57 35,57 Z" fill="#CC1500"/>

  <!-- Flame inner orange highlight -->
  <path d="M33,50 C26,50 21,45 21,38 C21,31 25,26 29,22
           C28,27 31,30 33,26 C33,37 37,41 39,38
           C37,30 40,25 43,21 C41,30 44,36 46,32
           C47,24 44,17 41,13 C46,17 50,26 49,35
           C50,29 49,23 46,18 C49,23 50,31 49,38
           C47,46 42,50 36,50 Z" fill="#FF6B00" opacity="0.85"/>

  <!-- PRO text bold black -->
  <text x="68" y="44"
        font-family="'Arial Black','Arial',sans-serif"
        font-weight="900" font-size="36" fill="#111111">PRO</text>

  <!-- HID text bold red -->
  <text x="152" y="44"
        font-family="'Arial Black','Arial',sans-serif"
        font-weight="900" font-size="36" fill="#CC1500">HID</text>

  <!-- Registered trademark -->
  <text x="223" y="18"
        font-family="Arial,sans-serif" font-size="13" fill="#777">®</text>

  <!-- Tagline -->
  <text x="68" y="59"
        font-family="Arial,sans-serif" font-weight="700" font-size="7.8"
        fill="#CC1500" letter-spacing="1.4">TECNOLOGIA EM ENGENHARIA DE INCÊNDIO</text>
</svg>
